<svg width="750px" height="257px" viewBox="0 0 750 257" version="1.1" xmlns="http://www.w3.org/2000/svg" style="background: #FFFFFF;">
    <title>Artefact</title>
    <g id="Logo" stroke="none" stroke-width="1" fill="none" fill-rule="evenodd">
        <g id="Artefact-02">
            <path d="M736.040835,247.091659 C719.6814,247.091659 711.095533,239.398722 704.196976,233.218391 C698.168951,227.819001 693.814797,223.918778 684.309123,223.918778 C674.801955,223.918778 670.447801,227.819001 664.421269,233.218391 C657.521219,239.398722 648.935353,247.091659 632.575917,247.091659 C616.217975,247.091659 607.633602,239.398722 600.735044,233.218391 C594.710006,227.819001 590.355852,223.918778 580.851671,223.918778 C571.345997,223.918778 566.991842,227.819001 560.966804,233.218391 C554.068247,239.398722 545.48238,247.091659 529.124438,247.091659 C512.766496,247.091659 504.182123,239.398722 497.283565,233.218391 C491.258527,227.819001 486.904373,223.918778 477.400192,223.918778 C467.896011,223.918778 463.541857,227.819001 457.516818,233.218391 C450.618261,239.398722 442.033888,247.091659 425.675945,247.091659 C409.319496,247.091659 400.736616,239.398722 393.838059,233.218391 C387.814514,227.819001 383.461853,223.918778 373.959165,223.918778 C369.01072,223.918778 365,219.906565 365,214.959613 C365,210.011168 369.01072,206.000448 373.959165,206.000448 C390.315614,206.000448 398.899987,213.693384 405.797051,219.873715 C411.820597,225.273105 416.174751,229.173328 425.675945,229.173328 C435.180126,229.173328 439.534281,225.273105 445.559319,219.873715 C452.457876,213.691891 461.04225,206.000448 477.400192,206.000448 C493.758134,206.000448 502.342507,213.691891 509.241064,219.873715 C515.266103,225.271612 519.620257,229.173328 529.124438,229.173328 C538.630112,229.173328 542.982773,225.271612 549.009305,219.873715 C555.907862,213.691891 564.493729,206.000448 580.851671,206.000448 C597.209613,206.000448 605.793986,213.691891 612.692543,219.873715 C618.717582,225.271612 623.071736,229.173328 632.575917,229.173328 C642.083084,229.173328 646.437239,225.271612 652.46377,219.872222 C659.363821,213.691891 667.949687,206.000448 684.309123,206.000448 C700.668558,206.000448 709.254425,213.691891 716.152982,219.872222 C722.179513,225.271612 726.533668,229.173328 736.040835,229.173328 C740.98928,229.173328 745,233.184048 745,238.132493 C745,243.080939 740.98928,247.091659 736.040835,247.091659" id="wave" fill="#FFCA05"></path>
            <path d="M67.0832031,168.886719 C55.6085364,177.757206 48.40646,182.884108 45.4767578,184.267578 C41.0822046,186.302094 36.4028894,187.319336 31.4386719,187.319336 C23.7075134,187.319336 17.3395758,184.674506 12.334668,179.384766 C7.32976013,174.095026 4.82734375,167.137087 4.82734375,158.510742 C4.82734375,153.058241 6.04803467,148.338236 8.48945313,144.350586 C11.8260583,138.816704 17.6243402,133.608423 25.8844727,128.725586 C34.1446051,123.842749 47.8773779,117.902053 67.0832031,110.90332 L67.0832031,106.508789 C67.0832031,95.3596448 65.3132013,87.7099817 61.7731445,83.5595703 C58.2330878,79.4091589 53.0858411,77.3339844 46.33125,77.3339844 C41.2042712,77.3339844 37.1353015,78.7174341 34.1242188,81.484375 C31.0317554,84.2513159 29.4855469,87.4251123 29.4855469,91.0058594 L29.7296875,98.0859375 C29.7296875,101.829446 28.7734796,104.718414 26.8610352,106.75293 C24.9485907,108.787445 22.4461743,109.804688 19.3537109,109.804688 C16.3426282,109.804688 13.8809015,108.746755 11.968457,106.630859 C10.0560126,104.514963 9.09980469,101.625995 9.09980469,97.9638672 C9.09980469,90.9651343 12.680498,84.5361621 19.8419922,78.6767578 C27.0034863,72.8173535 37.0538416,69.8876953 49.9933594,69.8876953 C59.9217944,69.8876953 68.0597339,71.5559729 74.4074219,74.8925781 C79.2088782,77.4153772 82.7488818,81.3622778 85.0275391,86.7333984 C86.4923901,90.2327649 87.2248047,97.3941516 87.2248047,108.217773 L87.2248047,146.181641 C87.2248047,156.842501 87.4282532,163.373198 87.8351563,165.773926 C88.2420593,168.174654 88.9134393,169.781897 89.8493164,170.595703 C90.7851935,171.409509 91.8634705,171.816406 93.0841797,171.816406 C94.3862695,171.816406 95.5255811,171.531578 96.5021484,170.961914 C98.2111414,169.903966 101.507007,166.933618 106.389844,162.050781 L106.389844,168.886719 C97.2752148,181.093811 88.5676196,187.197266 80.2667969,187.197266 C76.2791467,187.197266 73.1053503,185.813816 70.7453125,183.046875 C68.3852747,180.279934 67.1645837,175.559929 67.0832031,168.886719 Z M67.0832031,160.952148 L67.0832031,118.349609 C54.7947302,123.232446 46.8602393,126.691071 43.2794922,128.725586 C36.8504236,132.306333 32.2524878,136.049785 29.4855469,139.956055 C26.718606,143.862324 25.3351563,148.134742 25.3351563,152.773438 C25.3351563,158.632842 27.0848132,163.495261 30.5841797,167.36084 C34.0835461,171.226419 38.1118262,173.15918 42.6691406,173.15918 C48.8540674,173.15918 56.9920068,169.09021 67.0832031,160.952148 Z M147.405469,69.8876953 L147.405469,95.0341797 C156.76424,78.2697729 166.367008,69.8876953 176.214063,69.8876953 C180.689996,69.8876953 184.392759,71.2508002 187.322461,73.9770508 C190.252163,76.7033014 191.716992,79.8567529 191.716992,83.4375 C191.716992,86.611344 190.65906,89.296864 188.543164,91.4941406 C186.427268,93.6914172 183.904507,94.7900391 180.974805,94.7900391 C178.126483,94.7900391 174.932342,93.3862445 171.392285,90.5786133 C167.852228,87.7709821 165.227743,86.3671875 163.51875,86.3671875 C162.053899,86.3671875 160.467001,87.1809814 158.758008,88.8085938 C155.09588,92.145199 151.311738,97.6383081 147.405469,105.288086 L147.405469,158.876953 C147.405469,165.06188 148.178573,169.741195 149.724805,172.915039 C150.782753,175.112316 152.654479,176.943352 155.340039,178.408203 C158.025599,179.873054 161.891121,180.605469 166.936719,180.605469 L166.936719,185 L109.685742,185 L109.685742,180.605469 C115.382385,180.605469 119.614114,179.710295 122.381055,177.919922 C124.41557,176.617832 125.839709,174.542657 126.653516,171.694336 C127.060419,170.310865 127.263867,166.363965 127.263867,159.853516 L127.263867,116.518555 C127.263867,103.497656 126.999384,95.7462689 126.47041,93.2641602 C125.941436,90.7820514 124.964883,88.9713599 123.540723,87.8320312 C122.116562,86.6927026 120.34656,86.1230469 118.230664,86.1230469 C115.707865,86.1230469 112.859586,86.7333923 109.685742,87.9541016 L108.465039,83.5595703 L142.278516,69.8876953 L147.405469,69.8876953 Z M236.413281,36.4404297 L236.413281,73.1835938 L262.536328,73.1835938 L262.536328,81.7285156 L236.413281,81.7285156 L236.413281,154.238281 C236.413281,161.481156 237.450869,166.36392 239.526074,168.886719 C241.60128,171.409518 244.266455,172.670898 247.52168,172.670898 C250.20724,172.670898 252.811381,171.83676 255.33418,170.168457 C257.856979,168.500154 259.810084,166.038428 261.193555,162.783203 L265.954297,162.783203 C263.105975,170.758503 259.077695,176.760234 253.869336,180.788574 C248.660977,184.816915 243.289937,186.831055 237.756055,186.831055 C234.012546,186.831055 230.350474,185.793467 226.769727,183.718262 C223.188979,181.643056 220.544149,178.672708 218.835156,174.807129 C217.126163,170.94155 216.27168,164.980509 216.27168,156.923828 L216.27168,81.7285156 L198.571484,81.7285156 L198.571484,77.7001953 C203.047418,75.9098218 207.625009,72.8784393 212.304395,68.605957 C216.98378,64.3334747 221.154474,59.2676074 224.816602,53.4082031 C226.688356,50.3157397 229.292496,44.6598718 232.629102,36.4404297 L236.413281,36.4404297 Z M292.199414,115.297852 C292.118033,131.899497 296.146313,144.9202 304.284375,154.360352 C312.422437,163.800503 321.984515,168.520508 332.970898,168.520508 C340.295154,168.520508 346.663091,166.506368 352.074902,162.478027 C357.486713,158.449687 362.023615,151.552783 365.685742,141.787109 L369.469922,144.228516 C367.760929,155.37766 362.796786,165.529739 354.577344,174.685059 C346.357902,183.840378 336.063408,188.417969 323.693555,188.417969 C310.265753,188.417969 298.770914,183.189343 289.208691,172.731934 C279.646469,162.274525 274.86543,148.216234 274.86543,130.556641 C274.86543,111.432196 279.768538,96.519422 289.574902,85.8178711 C299.381266,75.1163202 311.6899,69.765625 326.501172,69.765625 C339.033787,69.765625 349.32828,73.8956293 357.384961,82.1557617 C365.441642,90.4158942 369.469922,101.463147 369.469922,115.297852 L292.199414,115.297852 Z M292.199414,108.217773 L343.957227,108.217773 C343.550323,101.056279 342.69584,96.0107568 341.39375,93.0810547 C339.359235,88.5237402 336.327852,84.9430469 332.299512,82.3388672 C328.271171,79.7346875 324.059788,78.4326172 319.665234,78.4326172 C312.910643,78.4326172 306.868223,81.0571027 301.537793,86.3061523 C296.207363,91.555202 293.094601,98.8590027 292.199414,108.217773 Z M418.963672,81.9726562 L418.963672,155.458984 C418.963672,165.875703 420.102983,172.467434 422.381641,175.234375 C425.392723,178.815122 429.421003,180.605469 434.466602,180.605469 L444.598437,180.605469 L444.598437,185 L377.825977,185 L377.825977,180.605469 L382.830859,180.605469 C386.086084,180.605469 389.056432,179.791675 391.741992,178.164062 C394.427552,176.53645 396.278934,174.339207 397.296191,171.572266 C398.313449,168.805325 398.82207,163.434285 398.82207,155.458984 L398.82207,81.9726562 L377.093555,81.9726562 L377.093555,73.1835938 L398.82207,73.1835938 L398.82207,65.859375 C398.82207,54.7102307 400.612417,45.2702209 404.193164,37.5390625 C407.773911,29.8079041 413.246675,23.5620355 420.611621,18.8012695 C427.976567,14.0405035 436.25692,11.6601562 445.45293,11.6601562 C453.997894,11.6601562 461.851006,14.4270557 469.0125,19.9609375 C473.732576,23.6230652 476.092578,27.7327246 476.092578,32.2900391 C476.092578,34.7314575 475.034646,37.0304254 472.91875,39.1870117 C470.802854,41.343598 468.524231,42.421875 466.082812,42.421875 C464.211058,42.421875 462.237608,41.750495 460.162402,40.4077148 C458.087197,39.0649347 455.544091,36.1759662 452.533008,31.7407227 C449.521925,27.3054791 446.755026,24.3147864 444.232227,22.7685547 C441.709427,21.222323 438.901838,20.4492188 435.809375,20.4492188 C432.065867,20.4492188 428.89207,21.4461163 426.287891,23.4399414 C423.683711,25.4337665 421.811985,28.5261835 420.672656,32.7172852 C419.533328,36.9083868 418.963672,47.7115015 418.963672,65.1269531 L418.963672,73.1835938 L447.772266,73.1835938 L447.772266,81.9726562 L418.963672,81.9726562 Z M521.868945,168.886719 C510.394279,177.757206 503.192202,182.884108 500.2625,184.267578 C495.867947,186.302094 491.188632,187.319336 486.224414,187.319336 C478.493256,187.319336 472.125318,184.674506 467.12041,179.384766 C462.115502,174.095026 459.613086,167.137087 459.613086,158.510742 C459.613086,153.058241 460.833777,148.338236 463.275195,144.350586 C466.611801,138.816704 472.410082,133.608423 480.670215,128.725586 C488.930347,123.842749 502.66312,117.902053 521.868945,110.90332 L521.868945,106.508789 C521.868945,95.3596448 520.098943,87.7099817 516.558887,83.5595703 C513.01883,79.4091589 507.871583,77.3339844 501.116992,77.3339844 C495.990013,77.3339844 491.921044,78.7174341 488.909961,81.484375 C485.817498,84.2513159 484.271289,87.4251123 484.271289,91.0058594 L484.51543,98.0859375 C484.51543,101.829446 483.559222,104.718414 481.646777,106.75293 C479.734333,108.787445 477.231917,109.804688 474.139453,109.804688 C471.12837,109.804688 468.666644,108.746755 466.754199,106.630859 C464.841755,104.514963 463.885547,101.625995 463.885547,97.9638672 C463.885547,90.9651343 467.46624,84.5361621 474.627734,78.6767578 C481.789229,72.8173535 491.839584,69.8876953 504.779102,69.8876953 C514.707537,69.8876953 522.845476,71.5559729 529.193164,74.8925781 C533.99462,77.4153772 537.534624,81.3622778 539.813281,86.7333984 C541.278132,90.2327649 542.010547,97.3941516 542.010547,108.217773 L542.010547,146.181641 C542.010547,156.842501 542.213995,163.373198 542.620898,165.773926 C543.027802,168.174654 543.699182,169.781897 544.635059,170.595703 C545.570936,171.409509 546.649213,171.816406 547.869922,171.816406 C549.172012,171.816406 550.311323,171.531578 551.287891,170.961914 C552.996884,169.903966 556.292749,166.933618 561.175586,162.050781 L561.175586,168.886719 C552.060957,181.093811 543.353362,187.197266 535.052539,187.197266 C531.064889,187.197266 527.891093,185.813816 525.531055,183.046875 C523.171017,180.279934 521.950326,175.559929 521.868945,168.886719 Z M521.868945,160.952148 L521.868945,118.349609 C509.580472,123.232446 501.645981,126.691071 498.065234,128.725586 C491.636166,132.306333 487.03823,136.049785 484.271289,139.956055 C481.504348,143.862324 480.120898,148.134742 480.120898,152.773438 C480.120898,158.632842 481.870555,163.495261 485.369922,167.36084 C488.869288,171.226419 492.897568,173.15918 497.454883,173.15918 C503.63981,173.15918 511.777749,169.09021 521.868945,160.952148 Z M659.44707,142.519531 C656.435988,157.249423 650.535981,168.581503 641.746875,176.516113 C632.957769,184.450723 623.232931,188.417969 612.57207,188.417969 C599.876694,188.417969 588.809097,183.087618 579.368945,172.426758 C569.928794,161.765897 565.208789,147.361744 565.208789,129.213867 C565.208789,111.635654 570.437415,97.3535706 580.894824,86.3671875 C591.352233,75.3808044 603.905005,69.8876953 618.553516,69.8876953 C629.539899,69.8876953 638.573011,72.7970087 645.653125,78.6157227 C652.733239,84.4344366 656.273242,90.4768567 656.273242,96.7431641 C656.273242,99.8356274 655.276345,102.338044 653.28252,104.250488 C651.288694,106.162933 648.50145,107.119141 644.920703,107.119141 C640.119247,107.119141 636.497864,105.572932 634.056445,102.480469 C632.672975,100.771476 631.757457,97.5163 631.309863,92.7148438 C630.86227,87.9133875 629.214337,84.2513147 626.366016,81.7285156 C623.517694,79.2870972 619.570793,78.0664062 614.525195,78.0664062 C606.387134,78.0664062 599.836093,81.0774438 594.871875,87.0996094 C588.280045,95.0749097 584.98418,105.613541 584.98418,118.71582 C584.98418,132.062241 588.2597,143.841909 594.81084,154.055176 C601.361979,164.268443 610.211989,169.375 621.361133,169.375 C629.336433,169.375 636.49782,166.64879 642.845508,161.196289 C647.321442,157.452781 651.675239,150.657601 655.907031,140.810547 L659.44707,142.519531 Z M704.908984,36.4404297 L704.908984,73.1835938 L731.032031,73.1835938 L731.032031,81.7285156 L704.908984,81.7285156 L704.908984,154.238281 C704.908984,161.481156 705.946572,166.36392 708.021777,168.886719 C710.096983,171.409518 712.762158,172.670898 716.017383,172.670898 C718.702943,172.670898 721.307084,171.83676 723.829883,170.168457 C726.352682,168.500154 728.305787,166.038428 729.689258,162.783203 L734.45,162.783203 C731.601678,170.758503 727.573398,176.760234 722.365039,180.788574 C717.15668,184.816915 711.78564,186.831055 706.251758,186.831055 C702.50825,186.831055 698.846177,185.793467 695.26543,183.718262 C691.684683,181.643056 689.039852,178.672708 687.330859,174.807129 C685.621866,170.94155 684.767383,164.980509 684.767383,156.923828 L684.767383,81.7285156 L667.067188,81.7285156 L667.067188,77.7001953 C671.543121,75.9098218 676.120712,72.8784393 680.800098,68.605957 C685.479483,64.3334747 689.650177,59.2676074 693.312305,53.4082031 C695.184059,50.3157397 697.788199,44.6598718 701.124805,36.4404297 L704.908984,36.4404297 Z" id="artefact" fill="#000000"></path>
        </g>
    </g>
</svg>